<svg width="19" height="20" viewBox="0 0 19 20" fill="none" xmlns="http://www.w3.org/2000/svg">
<g clip-path="url(#clip0_129_22)">
<path fill-rule="evenodd" clip-rule="evenodd" d="M17.8894 4.10373C16.0977 3.56412 15.8737 1.60565 15.8627 0.762076C15.8599 0.546712 15.6803 0.371094 15.465 0.371094H3.07779C2.86252 0.371094 2.6829 0.546712 2.68008 0.762076C2.669 1.60575 2.44515 3.56422 0.653456 4.10373C0.48011 4.15593 0.363326 4.31847 0.370959 4.49942C0.438185 6.09296 1.15154 13.2375 8.43814 18.6388C8.93423 19.0066 9.6088 19.0066 10.1049 18.6388C17.3915 13.2375 18.1047 6.09296 18.1721 4.49942C18.1795 4.31847 18.0627 4.15593 17.8894 4.10373Z" fill="#0EC7C2"/>
<path d="M8.80081 10.4927C8.52064 10.4927 8.24048 10.3897 8.01929 10.1689L6.55949 8.71179C6.13186 8.28495 6.13186 7.57838 6.55949 7.15155C6.98711 6.72471 7.6949 6.72471 8.12252 7.15155L8.83031 7.85809L11.1896 5.6797C11.632 5.26759 12.3398 5.29708 12.7527 5.73863C13.1655 6.18019 13.136 6.88667 12.6937 7.29878L9.55285 10.1983C9.33167 10.3896 9.06623 10.4927 8.80081 10.4927Z" fill="white"/>
<path fill-rule="evenodd" clip-rule="evenodd" d="M10.0132 18.6736C9.52405 19.0062 8.88082 18.9947 8.40203 18.6381C1.14843 13.2371 0.438583 6.09332 0.370929 4.49934C0.363643 4.3184 0.480217 4.15628 0.652996 4.10398C2.43595 3.56429 2.65869 1.60528 2.67014 0.762268C2.67326 0.546808 2.85229 0.371094 3.06566 0.371094H4.62691C4.41354 0.371094 4.23452 0.546808 4.2314 0.762268C4.21995 1.60528 3.99721 3.56429 2.21425 4.10398C2.04147 4.15628 1.9249 4.3184 1.93219 4.49934C1.99984 6.09332 2.70969 13.237 9.96329 18.6381C9.97994 18.6507 9.99659 18.6622 10.0132 18.6736Z" fill="#49E4DF"/>
<path fill-rule="evenodd" clip-rule="evenodd" d="M18.1607 3.77657C18.5197 3.88364 18.7594 4.21738 18.7437 4.58793C18.5411 9.36162 15.8378 15.0493 10.4621 18.9994C9.81119 19.4779 8.93631 19.4776 8.28556 18.9994C5.11383 16.6687 2.7868 13.7598 1.36914 10.3531C0.24353 7.64819 0.0395802 5.42024 0.00415178 4.58793C-0.0116175 4.21738 0.228181 3.88364 0.587301 3.77657C2.12744 3.31678 2.31614 1.56937 2.32571 0.839435C2.33149 0.397577 2.69955 0.0380859 3.14613 0.0380859H15.6018C16.0482 0.0380859 16.4162 0.397577 16.4222 0.839435C16.4318 1.56937 16.6205 3.31678 18.1607 3.77657ZM8.78604 18.3293C9.13759 18.5877 9.60993 18.5877 9.96128 18.3293C17.1577 13.0413 17.8393 5.98207 17.9024 4.57059C15.8597 3.95024 15.597 1.79631 15.5814 0.872249H3.16607C3.1504 1.79663 2.88748 3.95045 0.844931 4.57059C0.908218 5.98218 1.59019 13.0416 8.78604 18.3293Z" fill="#1E2228"/>
</g>
<defs>
<clipPath id="clip0_129_22">
<rect width="19" height="19.5672" fill="white"/>
</clipPath>
</defs>
</svg>

