<svg width="16" height="20" viewBox="0 0 16 20" fill="none" xmlns="http://www.w3.org/2000/svg">
<path fill-rule="evenodd" clip-rule="evenodd" d="M4.25259 10.5698C2.26459 10.582 0.579698 12.0607 0.325254 14.0365H0.324809V14.0607L0.0703648 16.6425V16.6667C0.0461426 16.788 0.0461426 16.9092 0.0461426 17.0183C0.0461426 18.6425 1.34303 19.9758 3.0037 20H3.01592H3.02814L12.083 19.9758C13.7557 19.9758 15.0526 18.6303 15.0648 17.006C15.0648 16.8847 15.0526 16.7514 15.0284 16.6303H15.0406L14.7617 14.0243L14.7495 14C14.4828 12.0365 12.8101 10.582 10.8344 10.5698H4.25259ZM2.13125 14.2667V14.2425C2.27659 13.1878 3.1857 12.3878 4.25237 12.388H10.8341C11.8888 12.388 12.7977 13.1758 12.9433 14.2183L13.2221 16.8243L13.2341 16.8485L13.2464 17.006C13.2464 17.6243 12.7253 18.1576 12.0828 18.1576L3.05259 18.1818H3.02836H3.01614C2.3737 18.1818 1.86459 17.6485 1.86459 17.0183L1.87681 16.8727V16.8485L2.13125 14.2667Z" fill="#1D252D"/>
<path fill-rule="evenodd" clip-rule="evenodd" d="M7.57372 0C5.04039 0 2.99194 2.04844 2.99194 4.56978C2.99194 7.10311 5.04039 9.15156 7.57372 9.15156C10.0951 9.15156 12.1435 7.10311 12.1435 4.56978C12.1435 2.04844 10.0948 0 7.57372 0ZM7.57372 1.81822C9.08883 1.81822 10.3253 3.05467 10.3253 4.56978C10.3253 6.09689 9.08883 7.33333 7.57372 7.33333C6.04639 7.33333 4.80994 6.09689 4.81017 4.56978C4.81017 3.05467 6.04639 1.81822 7.57372 1.81822Z" fill="#1D252D"/>
</svg>
